<?xml version="1.0" encoding="UTF-8" standalone="no"?>
<svg xmlns="http://www.w3.org/2000/svg" height="56.25" width="307.5" version="1.1">


<g id="g10" transform="matrix(1.25,0,0,-1.25,0,56.25)">
	<g id="g12" transform="scale(.1)" fill="white">
		<path id="path14" d="m0.085938 221.6c0-115.5 88.039-218.53 227.27-218.53 144.24 0 230.4 103.65 230.4 218.53 0 118.64-88.66 218.54-229.15 218.54-137.99 0-228.52-100.52-228.52-218.54zm63.062 0c0 93.661 70.555 162.34 165.46 162.34 95.532 0 166.09-68.683 166.09-162.34 0-93.031-70.554-162.34-166.09-162.34-94.91 0-165.46 69.308-165.46 162.34" fill-rule="evenodd"/>
		<path id="path16" d="m502.74 265.32c58.067 9.364 75.551 39.336 75.551 94.907v74.3h-75.551v-81.171h39.961c1.875-38.086-13.113-55.567-39.961-59.317v-28.719" fill="#231f20"/>
		<path id="path18" d="m642.38 434.52v-425.83h61.191v184.82h25.598c31.219 0 56.82-9.988 113.02-97.402l56.195-87.414h73.055c-29.35 40.583-39.96 54.943-58.07 84.286-32.47 53.08-56.2 92.42-94.91 118.01 45.582 18.11 71.18 54.946 71.18 104.27 0 73.679-53.7 119.26-139.86 119.26h-107.39zm61.191-52.449h39.336c59.317 0 83.043-24.347 83.668-64.308 0.625-35.594-18.109-69.309-83.668-69.309h-39.336v133.62" fill-rule="evenodd"/>
		<path id="path20" d="m1241.9 434.52h-241.63v-425.83h247.25v54.945h-186.06v132.37h174.2v54.945h-174.2v128.62h180.44v54.945"/>
		<path id="path22" d="m1305.9 8.6914h61.191v425.83h-61.191v-425.83z"/>
		<path id="path24" d="m1490.8 434.52h-61.19v-425.83h253.5v54.945h-192.31v370.89"/>
		<path id="path26" d="m1784.5 434.52h-61.19v-425.83h253.51v54.945h-192.32v370.89"/><path id="path28" d="m2095.6 290.68-114.26 146.73h-73.68l157.97-200.43v-225.4h61.2v224.78l157.96 201.05h-73.68l-115.51-146.73"/>
		<path id="path30" d="m2384.9 441.23c-36.76 0-67.55-29.7-67.55-67.368 0-37.304 30.24-67.547 67.55-67.547 37.3 0 67.55 30.243 67.55 67.547 0 37.668-30.61 67.368-67.55 67.368zm0-13.039c29.88 0 54.51-23.907 54.51-54.329 0-30.062-24.27-54.511-54.51-54.511-30.06 0-54.51 24.449-54.51 54.511 0 30.422 24.81 54.329 54.51 54.329zm-30.61-18.293v-72.254h17.93v28.793c2.17 0.179 4.89-0.543 6.34-1.266 3.44-1.992 8.87-11.23 16.84-27.527h21.19l-6.7 12.312c-5.07 9.238-7.97 15.215-16.84 19.379 6.7 1.266 19.56 5.434 19.56 20.102 0 15.031-11.41 20.461-26.08 20.461h-32.24zm17.93-12.493h8.51c7.79 0 13.4-2.898 13.4-9.058 0-6.879-5.61-9.051-14.12-9.051h-7.79v18.109" fill-rule="evenodd"/>
	</g>
</g>

</svg>
